<?xml version="1.0" encoding="UTF-8"?>
<!DOCTYPE svg PUBLIC "-//W3C//DTD SVG 1.1//EN" "http://www.w3.org/Graphics/SVG/1.1/DTD/svg11.dtd">
<!-- Creator: CorelDRAW -->
<svg xmlns="http://www.w3.org/2000/svg" xml:space="preserve" width="119.016mm" height="44.4133mm" version="1.1" style="shape-rendering:geometricPrecision; text-rendering:geometricPrecision; image-rendering:optimizeQuality; fill-rule:evenodd; clip-rule:evenodd"
viewBox="0 0 11887.38 4436.01"
 xmlns:xlink="http://www.w3.org/1999/xlink"
 xmlns:xodm="http://www.corel.com/coreldraw/odm/2003">
 <defs>
  <style type="text/css">
   <![CDATA[
    .fil2 {fill:#FEFEFE;fill-rule:nonzero}
    .fil0 {fill:#D2D3D5;fill-rule:nonzero}
    .fil1 {fill:#DD1829;fill-rule:nonzero}
   ]]>
  </style>
 </defs>
 <g id="Layer_x0020_1">
  <metadata id="CorelCorpID_0Corel-Layer"/>
  <g id="_2687552193312">
   <path class="fil0" d="M7545.25 1820.58l0 -694.99 -273.08 0 0 -116.86 677.77 0 0 116.86 -274.3 0 0 694.99 -130.38 0zm458.81 -405.92c-1.65,-115.62 39.77,-214.85 124.23,-297.67 84.47,-82.82 184.92,-123.42 301.37,-121.77 115.62,-1.65 216.28,38.95 301.98,121.77 85.7,82.82 127.32,182.05 124.85,297.67 2.47,115.63 -39.15,214.85 -124.85,297.67 -85.7,82.83 -186.36,123.42 -301.98,121.78 -116.45,1.64 -217.11,-38.95 -301.98,-121.78 -84.88,-82.82 -126.09,-182.04 -123.62,-297.67zm718.36 -1.23c0,-85.29 -27.89,-156.42 -83.65,-213.41 -55.76,-56.99 -125.06,-85.49 -207.88,-85.49 -83.64,0 -153.15,28.29 -208.5,84.87 -55.34,56.58 -83.02,127.93 -83.02,214.03 0,86.93 27.47,158.88 82.41,215.88 54.94,56.99 124.64,85.49 209.11,85.49 82.82,0 152.12,-28.71 207.88,-86.11 55.76,-57.4 83.65,-129.16 83.65,-215.26zm290.29 407.15l0 -811.85 533.85 0 0 116.86 -403.47 0 0 207.88 303.83 0 0 113.16 -303.83 0 0 257.08 418.22 0 0 116.86 -548.6 0zm699.91 0l0 -811.85 521.54 0 0 116.86 -391.16 0 0 242.32 322.27 0 0 118.09 -322.27 0 0 334.58 -130.38 0zm650.7 0l0 -811.85 130.38 0 0 694.99 371.48 0 0 116.86 -501.87 0zm-2818.07 1216.35l0 -694.99 -273.08 0 0 -116.86 677.77 0 0 116.86 -274.3 0 0 694.99 -130.38 0zm526.47 0l0 -811.85 533.85 0 0 116.86 -403.47 0 0 207.88 303.83 0 0 113.16 -303.83 0 0 257.08 418.22 0 0 116.86 -548.6 0zm642.1 -162.37l92.25 -70.12c59.04,86.11 129.97,129.16 212.8,129.16 41.82,0 75.65,-10.25 101.48,-30.75 25.83,-20.5 38.74,-47.97 38.74,-82.41 0,-27.89 -8.61,-49.82 -25.83,-65.81 -17.22,-15.99 -48.38,-34.65 -93.49,-55.96l-89.79 -41.83c-63.14,-28.7 -110.5,-60.48 -142.07,-95.33 -31.57,-34.85 -47.36,-78.11 -47.36,-129.77 0,-64.78 24.6,-117.68 73.81,-158.68 49.2,-41 109.88,-61.5 182.04,-61.5 56.59,0 108.04,13.11 154.37,39.36 46.33,26.24 82.21,61.5 107.63,105.78l-91.02 70.12c-44.29,-65.61 -101.28,-98.41 -170.98,-98.41 -36.08,0 -65.6,8.61 -88.56,25.84 -22.96,17.22 -34.44,41.41 -34.44,72.57 0.82,14.75 2.67,26.85 5.53,36.29 2.88,9.43 10.46,19.27 22.76,29.51 12.3,10.26 20.9,16.61 25.83,19.07 4.91,2.47 20.9,10.67 47.97,24.6 4.91,2.47 8.61,4.51 11.07,6.15l91.03 41.82c68.06,31.16 117.47,64.37 148.22,99.64 30.75,35.26 46.12,79.14 46.12,131.61 0,69.71 -25.63,126.29 -76.88,169.76 -51.26,43.46 -116.24,65.19 -194.97,65.19 -65.6,0 -125.06,-15.58 -178.36,-46.74 -53.31,-31.16 -95.94,-74.21 -127.93,-129.16zm936.08 162.37l0 -694.99 -273.08 0 0 -116.86 677.77 0 0 116.86 -274.3 0 0 694.99 -130.38 0zm-2344.51 810.43c-2.47,-115.62 38.94,-214.85 124.23,-297.67 85.29,-82.82 186.15,-123.42 302.6,-121.77 73.8,0 141.46,16.81 202.96,50.43 61.51,33.62 109.89,79.14 145.16,136.54l-98.41 72.57c-59.86,-93.49 -142.69,-140.22 -248.47,-140.22 -83.64,0 -153.35,28.5 -209.11,85.49 -55.76,56.99 -83.64,128.54 -83.64,214.64 0,86.11 27.88,157.65 83.64,214.65 55.76,56.99 125.47,85.49 209.11,85.49 105.78,0 188.61,-46.74 248.47,-140.23l98.41 72.57c-35.27,58.23 -83.44,103.95 -144.54,137.16 -61.1,33.21 -128.96,49.82 -203.58,49.82 -116.45,1.64 -217.31,-38.95 -302.6,-121.78 -85.29,-82.82 -126.7,-182.04 -124.23,-297.67zm931.15 405.92l0 -811.85 533.85 0 0 116.86 -403.47 0 0 207.88 303.83 0 0 113.16 -303.83 0 0 257.08 418.22 0 0 116.86 -548.6 0zm1238.67 -811.85l130.39 0 0 825.38 -44.29 0 -494.49 -563.37 0 549.84 -130.38 0 0 -825.37 45.51 0 493.26 560.91 0 -547.38zm526.47 811.85l0 -694.99 -273.08 0 0 -116.86 677.77 0 0 116.86 -274.3 0 0 694.99 -130.38 0zm526.47 0l0 -811.85 533.85 0 0 116.86 -403.47 0 0 207.88 303.83 0 0 113.16 -303.83 0 0 257.08 418.22 0 0 116.86 -548.6 0zm1359.22 0l-148.83 0 -231.25 -313.66 -148.84 0 0 313.66 -130.38 0 0 -811.85 296.44 0c82,0 148.42,23.17 199.27,69.51 50.84,46.32 76.26,105.98 76.26,178.97 0,53.31 -13.73,100.05 -41.2,140.23 -27.48,40.18 -65.81,69.71 -115.01,88.56l243.55 334.58zm-528.93 -696.22l0 266.92 163.6 0c44.28,0 79.33,-12.1 105.16,-36.29 25.83,-24.19 38.75,-56.37 38.75,-96.55 0,-40.18 -12.92,-72.57 -38.75,-97.18 -25.83,-24.6 -60.89,-36.9 -105.16,-36.9l-163.6 0z"/>
   <path class="fil1" d="M6134.45 3484.1c-229.99,0 -425.98,-64.86 -576.98,-175.49 -1.5,7.46 -3,15.03 -4.48,22.49 -61.47,299.43 -192.29,575.68 -379.22,801.2 250.09,137.97 548.73,216.07 886.37,216.07l695.46 0 0 -864.27 -621.15 0z"/>
   <path class="fil2" d="M6755.6 871.24l0 857.41 -621.15 0c-368.67,0 -649.7,166.61 -798.72,420.95 -0.09,0.14 -0.2,0.14 -0.2,0.43 -77.49,132.15 -119.27,287.93 -119.27,456.4 0,44.86 2.99,88.71 8.75,131.58 7.56,55.39 11.94,111.07 11.94,167.04 0,0.28 0,0.57 0,0.99l0 4.14c0,120.81 -11.84,237.49 -34.72,348.9 -52.22,254.28 -162.36,480.88 -321.61,665.53 -273.26,317.33 -691.37,511.41 -1209.57,511.41 -951.93,0 -1558.94,-654.95 -1558.94,-1525.84l0 -2910.17 910.54 0 0 877.78 1769.34 0c-77.8,60.81 -151.51,127.31 -220.75,199.37 -183.94,191.82 -328.48,414.68 -429.46,658.05l-1119.14 0 0 1201.89c0,317.32 200.04,634.66 648.4,634.66 294.65,0 482.36,-132.9 578.08,-312.68 52.32,-97.98 77.3,-210 77.3,-321.98 0,0 1.28,-112.78 2.28,-207.91 0.8,-67.93 1.39,-126.89 1.39,-129.58 0,-374.67 106.25,-725.7 295.87,-1017.2 295.55,-433.62 794.83,-711.16 1434.19,-711.16l695.46 0z"/>
   <path class="fil2" d="M2468.83 4185.38c-246.69,159.48 -554.79,250.63 -909.89,250.63 -951.93,0 -1558.94,-654.95 -1558.94,-1525.84l0 -2910.17 910.54 0 0 877.79 906.97 0 0 857.41 -906.97 0 0 1201.89c0,317.32 200.05,634.66 648.4,634.66 144.05,0 262.52,-31.77 357.19,-85.25 106.44,290.37 295.85,532.03 552.7,698.88z"/>
  </g>
 </g>
</svg>
