<?xml version="1.0" encoding="UTF-8"?>
<!DOCTYPE svg PUBLIC "-//W3C//DTD SVG 1.1//EN" "http://www.w3.org/Graphics/SVG/1.1/DTD/svg11.dtd">
<!-- Creator: CorelDRAW -->
<svg xmlns="http://www.w3.org/2000/svg" xml:space="preserve" width="119.016mm" height="44.4133mm" version="1.1" style="shape-rendering:geometricPrecision; text-rendering:geometricPrecision; image-rendering:optimizeQuality; fill-rule:evenodd; clip-rule:evenodd"
viewBox="0 0 11900.54 4440.92"
 xmlns:xlink="http://www.w3.org/1999/xlink"
 xmlns:xodm="http://www.corel.com/coreldraw/odm/2003">
 <defs>
  <style type="text/css">
   <![CDATA[
    .fil2 {fill:#1D4A85;fill-rule:nonzero}
    .fil0 {fill:#848688;fill-rule:nonzero}
    .fil1 {fill:#DD1829;fill-rule:nonzero}
   ]]>
  </style>
 </defs>
 <g id="Layer_x0020_1">
  <metadata id="CorelCorpID_0Corel-Layer"/>
  <g id="_2687499973424">
   <path class="fil0" d="M7553.61 1822.59l0 -695.76 -273.38 0 0 -116.99 678.52 0 0 116.99 -274.6 0 0 695.76 -130.53 0zm459.32 -406.37c-1.65,-115.75 39.82,-215.09 124.37,-298 84.56,-82.91 185.12,-123.56 301.7,-121.91 115.75,-1.65 216.52,39 302.31,121.91 85.79,82.91 127.46,182.25 124.99,298 2.47,115.76 -39.2,215.09 -124.99,298 -85.79,82.92 -186.56,123.56 -302.31,121.92 -116.58,1.64 -217.35,-39 -302.31,-121.92 -84.97,-82.91 -126.23,-182.24 -123.76,-298zm719.15 -1.23c0,-85.38 -27.92,-156.6 -83.74,-213.65 -55.82,-57.05 -125.2,-85.58 -208.11,-85.58 -83.73,0 -153.32,28.32 -208.73,84.96 -55.4,56.64 -83.11,128.07 -83.11,214.27 0,87.02 27.5,159.06 82.5,216.12 55,57.05 124.78,85.58 209.34,85.58 82.91,0 152.29,-28.74 208.11,-86.2 55.82,-57.46 83.74,-129.3 83.74,-215.5zm290.61 407.6l0 -812.75 534.44 0 0 116.99 -403.91 0 0 208.11 304.16 0 0 113.29 -304.16 0 0 257.37 418.68 0 0 116.99 -549.21 0zm700.69 0l0 -812.75 522.12 0 0 116.99 -391.59 0 0 242.59 322.63 0 0 118.22 -322.63 0 0 334.95 -130.53 0zm651.42 0l0 -812.75 130.53 0 0 695.76 371.9 0 0 116.99 -502.42 0zm-2821.19 1217.7l0 -695.76 -273.38 0 0 -116.99 678.52 0 0 116.99 -274.6 0 0 695.76 -130.53 0zm527.05 0l0 -812.75 534.44 0 0 116.99 -403.91 0 0 208.11 304.16 0 0 113.29 -304.16 0 0 257.37 418.68 0 0 116.99 -549.21 0zm642.81 -162.55l92.35 -70.19c59.1,86.2 130.12,129.3 213.04,129.3 41.87,0 75.73,-10.26 101.59,-30.79 25.86,-20.52 38.79,-48.03 38.79,-82.5 0,-27.92 -8.62,-49.88 -25.86,-65.88 -17.24,-16.01 -48.44,-34.69 -93.59,-56.02l-89.89 -41.88c-63.21,-28.73 -110.62,-60.54 -142.23,-95.43 -31.61,-34.89 -47.42,-78.19 -47.42,-129.92 0,-64.85 24.63,-117.81 73.89,-158.86 49.26,-41.05 110,-61.56 182.24,-61.56 56.65,0 108.16,13.13 154.55,39.41 46.39,26.27 82.3,61.56 107.75,105.9l-91.12 70.19c-44.34,-65.68 -101.39,-98.52 -171.17,-98.52 -36.12,0 -65.67,8.62 -88.66,25.87 -22.99,17.24 -34.48,41.46 -34.48,72.65 0.82,14.77 2.67,26.88 5.54,36.33 2.88,9.44 10.47,19.29 22.79,29.55 12.31,10.27 20.93,16.63 25.86,19.09 4.92,2.47 20.93,10.68 48.03,24.63 4.92,2.47 8.62,4.52 11.08,6.16l91.13 41.87c68.13,31.2 117.6,64.44 148.39,99.75 30.79,35.3 46.18,79.22 46.18,131.76 0,69.78 -25.66,126.43 -76.96,169.94 -51.32,43.51 -116.37,65.26 -195.18,65.26 -65.67,0 -125.2,-15.6 -178.55,-46.8 -53.37,-31.2 -96.05,-74.29 -128.07,-129.3zm937.11 162.55l0 -695.76 -273.38 0 0 -116.99 678.52 0 0 116.99 -274.6 0 0 695.76 -130.53 0zm-2347.11 811.33c-2.47,-115.75 38.99,-215.09 124.37,-298 85.38,-82.91 186.35,-123.56 302.93,-121.91 73.88,0 141.62,16.83 203.18,50.49 61.57,33.66 110.01,79.22 145.32,136.69l-98.52 72.65c-59.92,-93.59 -142.85,-140.38 -248.75,-140.38 -83.73,0 -153.52,28.53 -209.34,85.58 -55.82,57.05 -83.73,128.68 -83.73,214.88 0,86.2 27.91,157.83 83.73,214.89 55.82,57.05 125.61,85.58 209.34,85.58 105.9,0 188.82,-46.8 248.75,-140.39l98.52 72.65c-35.31,58.29 -83.53,104.06 -144.7,137.31 -61.16,33.25 -129.1,49.88 -203.8,49.88 -116.58,1.64 -217.55,-39 -302.93,-121.92 -85.38,-82.91 -126.84,-182.24 -124.37,-298zm932.18 406.37l0 -812.75 534.44 0 0 116.99 -403.91 0 0 208.11 304.16 0 0 113.29 -304.16 0 0 257.37 418.68 0 0 116.99 -549.21 0zm1240.05 -812.75l130.54 0 0 826.29 -44.34 0 -495.03 -564 0 550.45 -130.53 0 0 -826.28 45.56 0 493.8 561.53 0 -547.99zm527.05 812.75l0 -695.76 -273.38 0 0 -116.99 678.52 0 0 116.99 -274.6 0 0 695.76 -130.53 0zm527.05 0l0 -812.75 534.44 0 0 116.99 -403.91 0 0 208.11 304.16 0 0 113.29 -304.16 0 0 257.37 418.68 0 0 116.99 -549.21 0zm1360.73 0l-149 0 -231.51 -314.01 -149.01 0 0 314.01 -130.53 0 0 -812.75 296.77 0c82.09,0 148.59,23.2 199.49,69.58 50.9,46.38 76.34,106.1 76.34,179.16 0,53.37 -13.75,100.16 -41.25,140.39 -27.51,40.23 -65.88,69.78 -115.14,88.66l243.82 334.95zm-529.51 -696.99l0 267.22 163.78 0c44.33,0 79.42,-12.11 105.28,-36.33 25.86,-24.22 38.8,-56.43 38.8,-96.66 0,-40.23 -12.94,-72.65 -38.8,-97.29 -25.86,-24.63 -60.95,-36.94 -105.28,-36.94l-163.78 0z"/>
   <path class="fil1" d="M6141.25 3487.96c-230.25,0 -426.45,-64.93 -577.62,-175.68 -1.5,7.47 -3,15.05 -4.49,22.52 -61.53,299.76 -192.5,576.32 -379.64,802.09 250.37,138.13 549.34,216.31 887.35,216.31l696.23 0 0 -865.23 -621.83 0z"/>
   <path class="fil2" d="M6763.08 872.2l0 858.36 -621.83 0c-369.08,0 -650.42,166.79 -799.61,421.41 -0.09,0.14 -0.2,0.14 -0.2,0.43 -77.57,132.3 -119.4,288.25 -119.4,456.91 0,44.91 2.99,88.81 8.76,131.73 7.57,55.45 11.95,111.19 11.95,167.22 0,0.28 0,0.57 0,0.99l0 4.14c0,120.94 -11.85,237.75 -34.76,349.29 -52.28,254.56 -162.54,481.42 -321.97,666.27 -273.56,317.68 -692.14,511.97 -1210.91,511.97 -952.98,0 -1560.67,-655.68 -1560.67,-1527.53l0 -2913.39 911.55 0 0 878.75 1771.3 0c-77.88,60.87 -151.68,127.45 -220.99,199.59 -184.14,192.03 -328.84,415.14 -429.93,658.78l-1120.38 0 0 1203.22c0,317.67 200.26,635.36 649.12,635.36 294.97,0 482.9,-133.05 578.72,-313.02 52.38,-98.09 77.38,-210.23 77.38,-322.34 0,0 1.28,-112.91 2.28,-208.14 0.8,-68 1.39,-127.03 1.39,-129.73 0,-375.09 106.37,-726.5 296.19,-1018.33 295.87,-434.1 795.71,-711.94 1435.78,-711.94l696.23 0z"/>
   <path class="fil2" d="M2471.56 4190.02c-246.97,159.66 -555.41,250.91 -910.9,250.91 -952.98,0 -1560.67,-655.68 -1560.67,-1527.53l0 -2913.39 911.55 0 0 878.76 907.98 0 0 858.36 -907.98 0 0 1203.22c0,317.67 200.27,635.36 649.12,635.36 144.21,0 262.81,-31.81 357.59,-85.34 106.56,290.69 296.17,532.62 553.31,699.66z"/>
  </g>
 </g>
</svg>
